<?xml version="1.0" encoding="utf-8"?>
<!-- Generator: Adobe Illustrator 18.0.0, SVG Export Plug-In . SVG Version: 6.00 Build 0)  -->
<!DOCTYPE svg PUBLIC "-//W3C//DTD SVG 1.1//EN" "http://www.w3.org/Graphics/SVG/1.1/DTD/svg11.dtd">
<svg version="1.1" xmlns="http://www.w3.org/2000/svg" xmlns:xlink="http://www.w3.org/1999/xlink" x="0px" y="0px"
	 viewBox="0 101 500 599" enable-background="new 0 101 500 599" xml:space="preserve">
<g id="Layer_1">
	<rect x="21" y="118.4" fill="#E6E6E6" width="460.4" height="561.8"/>
	<circle fill="#FF766A" cx="36.7" cy="131" r="5"/>
	<circle fill="#FFF874" cx="52.1" cy="131" r="5"/>
	<circle fill="#7FFFA4" cx="67.4" cy="131" r="5"/>
	<path fill="#F2F2F2" d="M430.8,598h-72.7c-1.1,0-2-0.9-2-2v-86.7c0-1.1,0.9-2,2-2h72.7c1.1,0,2,0.9,2,2V596
		C432.8,597.1,431.9,598,430.8,598z"/>
	<text transform="matrix(1 0 0 1 361.7539 571.1587)" fill="#525657" font-family="'Montserrat-Bold'" font-size="6.9053">Product</text>
	<line fill="none" stroke="#999999" stroke-miterlimit="10" x1="362" y1="577.8" x2="426" y2="577.8"/>
	<g>
		<text transform="matrix(1 0 0 1 362.0352 588.5082)" fill="#787E80" font-family="'Montserrat-Regular'" font-size="6.138">Colors</text>
	</g>
	<path fill="#787E80" d="M393,586l-1.3,1.3l-1.3-1.3l-0.4,0.4l1.7,1.7l1.7-1.7L393,586z"/>
	<path fill="#E6E6E6" d="M362.2,530.8V530l-3.5,3.5l3.5,3.5v-0.8l-2.6-2.6L362.2,530.8z"/>
	<path fill="#E6E6E6" d="M426.6,536.1v0.8l3.5-3.5l-3.5-3.5v0.8l2.6,2.6L426.6,536.1z"/>
	<path fill="#B8B8B8" d="M431.7,506.1h-74.6c-0.6,0-1.1,0.5-1.1,1.1v50.2c-0.1,0.1,76.7-0.1,76.7,0v-50.2
		C432.8,506.6,432.3,506.1,431.7,506.1z"/>
	<circle fill="#525657" stroke="#FFFFFF" stroke-miterlimit="10" cx="418.9" cy="557.3" r="7.7"/>
	<text transform="matrix(1 0 0 1 413.0577 559.4811)" fill="#FFFFFF" font-family="'Khula-Regular'" font-size="6.138">$79</text>
	<path fill="#F2F2F2" d="M334.9,598h-72.7c-1.1,0-2-0.9-2-2v-86.7c0-1.1,0.9-2,2-2h72.7c1.1,0,2,0.9,2,2V596
		C336.9,597.1,336,598,334.9,598z"/>
	<text transform="matrix(1 0 0 1 265.847 571.1587)" fill="#525657" font-family="'Montserrat-Bold'" font-size="6.9053">Product</text>
	<line fill="none" stroke="#999999" stroke-miterlimit="10" x1="266" y1="577.8" x2="330" y2="577.8"/>
	<g>
		<text transform="matrix(1 0 0 1 266.128 588.5082)" fill="#787E80" font-family="'Montserrat-Regular'" font-size="6.138">Colors</text>
	</g>
	<path fill="#787E80" d="M297.1,586l-1.3,1.3l-1.3-1.3l-0.4,0.4l1.7,1.7l1.7-1.7L297.1,586z"/>
	<path fill="#E6E6E6" d="M266.3,530.8V530l-3.5,3.5l3.5,3.5v-0.8l-2.6-2.6L266.3,530.8z"/>
	<path fill="#E6E6E6" d="M330.7,536.1v0.8l3.5-3.5l-3.5-3.5v0.8l2.6,2.6L330.7,536.1z"/>
	<path fill="#B8B8B8" d="M335.8,506.1h-74.6c-0.6,0-1.1,0.5-1.1,1.1v50.2c-0.1,0.1,76.7-0.1,76.7,0v-50.2
		C336.9,506.6,336.4,506.1,335.8,506.1z"/>
	<circle fill="#525657" stroke="#FFFFFF" stroke-miterlimit="10" cx="323" cy="557.3" r="7.7"/>
	<text transform="matrix(1 0 0 1 317.1504 559.4811)" fill="#FFFFFF" font-family="'Khula-Regular'" font-size="6.138">$79</text>
	<path fill="#F2F2F2" d="M239,598h-72.7c-1.1,0-2-0.9-2-2v-86.7c0-1.1,0.9-2,2-2H239c1.1,0,2,0.9,2,2V596
		C241,597.1,240.1,598,239,598z"/>
	<text transform="matrix(1 0 0 1 169.9414 571.1587)" fill="#525657" font-family="'Montserrat-Bold'" font-size="6.9053">Product</text>
	<line fill="none" stroke="#999999" stroke-miterlimit="10" x1="170" y1="577.8" x2="234" y2="577.8"/>
	<g>
		<text transform="matrix(1 0 0 1 170.2218 588.5082)" fill="#787E80" font-family="'Montserrat-Regular'" font-size="6.138">Colors</text>
	</g>
	<path fill="#787E80" d="M201.2,586l-1.3,1.3l-1.3-1.3l-0.4,0.4l1.7,1.7l1.7-1.7L201.2,586z"/>
	<path fill="#E6E6E6" d="M170.4,530.8V530l-3.5,3.5l3.5,3.5v-0.8l-2.6-2.6L170.4,530.8z"/>
	<path fill="#E6E6E6" d="M234.8,536.1v0.8l3.5-3.5l-3.5-3.5v0.8l2.6,2.6L234.8,536.1z"/>
	<path fill="#B8B8B8" d="M239.9,506.1h-74.6c-0.6,0-1.1,0.5-1.1,1.1v50.2c-0.1,0.1,76.7-0.1,76.7,0v-50.2
		C241,506.6,240.5,506.1,239.9,506.1z"/>
	<circle fill="#525657" stroke="#FFFFFF" stroke-miterlimit="10" cx="227.1" cy="557.3" r="7.7"/>
	<text transform="matrix(1 0 0 1 221.2441 559.4811)" fill="#FFFFFF" font-family="'Khula-Regular'" font-size="6.138">$79</text>
	<path fill="#F2F2F2" d="M139.3,598H66.5c-1.1,0-2-0.9-2-2v-86.7c0-1.1,0.9-2,2-2h72.7c1.1,0,2,0.9,2,2V596
		C141.3,597.1,140.4,598,139.3,598z"/>
	<text transform="matrix(1 0 0 1 70.1984 571.1587)" fill="#525657" font-family="'Montserrat-Bold'" font-size="6.9053">Product</text>
	<line fill="none" stroke="#999999" stroke-miterlimit="10" x1="70" y1="577.8" x2="134" y2="577.8"/>
	<g>
		<text transform="matrix(1 0 0 1 70.4783 588.5082)" fill="#787E80" font-family="'Montserrat-Regular'" font-size="6.138">Colors</text>
	</g>
	<path fill="#787E80" d="M101.5,586l-1.3,1.3l-1.3-1.3l-0.4,0.4l1.7,1.7l1.7-1.7L101.5,586z"/>
	<path fill="#E6E6E6" d="M70.7,530.8V530l-3.5,3.5l3.5,3.5v-0.8l-2.7-2.8L70.7,530.8z"/>
	<path fill="#E6E6E6" d="M135.1,536.1v0.8l3.5-3.5l-3.5-3.5v0.8l2.6,2.6L135.1,536.1z"/>
	<path fill="#B8B8B8" d="M140.2,506.1H65.6c-0.6,0-1.1,0.5-1.1,1.1v50.2c-0.1,0.1,76.7-0.1,76.7,0v-50.2
		C141.3,506.6,140.8,506.1,140.2,506.1z"/>
	<circle fill="#525657" stroke="#FFFFFF" stroke-miterlimit="10" cx="127.4" cy="557.3" r="7.7"/>
	<text transform="matrix(1 0 0 1 121.5011 559.4811)" fill="#FFFFFF" font-family="'Khula-Regular'" font-size="6.138">$79</text>
	<text transform="matrix(1 0 0 1 301.4787 162.5277)" font-family="'Khula-Bold'" font-size="7.6725">About</text>
	<text transform="matrix(1 0 0 1 347.5138 162.5277)" font-family="'Khula-Bold'" font-size="7.6725">Shop</text>
	<text transform="matrix(1 0 0 1 385.8762 162.5277)" font-family="'Khula-Bold'" font-size="7.6725">Contact</text>
	<g>
		<path d="M449.4,162.9c-0.6,0-1,0.5-1,1s0.5,1,1,1s1-0.5,1-1S450,162.9,449.4,162.9z M446.4,154.7v1h1l1.8,3.9l-0.7,1.3
			c-0.1,0.1-0.1,0.3-0.1,0.5c0,0.6,0.5,1,1,1h6.1v-1h-5.9c-0.1,0-0.1-0.1-0.1-0.1s0,0,0-0.1l0.5-0.8h3.8c0.4,0,0.7-0.2,0.9-0.5
			l1.8-3.3c0-0.1,0.1-0.2,0.1-0.2c0-0.3-0.2-0.5-0.5-0.5h-7.6l-0.5-1h-1.6V154.7z M454.6,162.9c-0.6,0-1,0.5-1,1s0.5,1,1,1
			s1-0.5,1-1S455.1,162.9,454.6,162.9z"/>
		<path fill="none" d="M445.9,153.7h12.3V166h-12.3V153.7z"/>
	</g>
	<line fill="none" stroke="#999999" stroke-width="4" stroke-miterlimit="10" x1="65" y1="472.4" x2="432" y2="472.4"/>
	<path fill="none" stroke="#E6E6E6" stroke-miterlimit="10" d="M86.4,668.3"/>
	<path fill="none" stroke="#E6E6E6" stroke-miterlimit="10" d="M77.8,655.2"/>
	<path fill="none" stroke="#E6E6E6" stroke-miterlimit="10" d="M86.4,642.2"/>
	<path fill="none" stroke="#E6E6E6" stroke-miterlimit="10" d="M221.6,642.2"/>
	<path fill="none" stroke="#E6E6E6" stroke-miterlimit="10" d="M230.3,655.2"/>
	<text transform="matrix(1 0 0 1 42.8674 162.5277)" font-family="'Khula-Bold'" font-size="7.6725">BRAND</text>
	<rect x="260.1" y="210.3" fill="none" width="174.9" height="52.4"/>
	<text transform="matrix(1 0 0 1 64.5333 493.9477)" font-family="'Montserrat-Bold'" font-size="12.2761">OTHER PRODUCTS</text>
	<circle fill="#B8B8B8" cx="457.4" cy="155.2" r="4.4"/>
	<text transform="matrix(1 0 0 1 455.8958 156.9019)" fill="#E6E6E6" font-family="'Khula-Regular'" font-size="6.138">1</text>
	<rect x="260.1" y="260.2" fill="none" width="174.9" height="52.4"/>
	<rect x="63.4" y="329.2" fill="none" width="174.9" height="52.4"/>
	<rect x="63.4" y="379.2" fill="none" width="174.9" height="52.4"/>
	<g>
		<rect x="269.9" y="203.5" fill="#B8B8B8" width="94.9" height="17.7"/>
		<rect x="269.9" y="226.4" fill="#B8B8B8" width="131.1" height="6.3"/>
		<rect x="269.9" y="237.8" fill="#B8B8B8" width="125.2" height="6.3"/>
		<rect x="269.9" y="249.1" fill="#B8B8B8" width="137.5" height="6.3"/>
		<rect x="269.9" y="260.4" fill="#B8B8B8" width="121.5" height="6.3"/>
		<rect x="269.9" y="271.7" fill="#B8B8B8" width="125.2" height="6.3"/>
	</g>
	<g>
		<rect x="89" y="324.4" fill="#B8B8B8" width="94.9" height="17.7"/>
		<rect x="89" y="347.3" fill="#B8B8B8" width="131.1" height="6.3"/>
		<rect x="89" y="358.6" fill="#B8B8B8" width="125.2" height="6.3"/>
		<rect x="89" y="369.9" fill="#B8B8B8" width="137.5" height="6.3"/>
		<rect x="89" y="381.3" fill="#B8B8B8" width="121.5" height="6.3"/>
		<rect x="89" y="392.6" fill="#B8B8B8" width="125.2" height="6.3"/>
	</g>
	<g>
		<rect x="-216.5" y="252.4" fill="#B8B8B8" width="94.9" height="17.7"/>
		<rect x="-216.5" y="275.4" fill="#B8B8B8" width="131.1" height="6.3"/>
		<rect x="-216.5" y="286.7" fill="#B8B8B8" width="125.2" height="6.3"/>
		<rect x="-216.5" y="298" fill="#B8B8B8" width="137.5" height="6.3"/>
		<rect x="-216.5" y="309.3" fill="#B8B8B8" width="121.5" height="6.3"/>
		<rect x="-216.5" y="320.6" fill="#B8B8B8" width="125.2" height="6.3"/>
	</g>
	<rect x="-238.6" y="432.4" opacity="0.44" fill="#FFFFFF" width="175.4" height="97.8"/>
	<path fill="none" stroke="#E6E6E6" stroke-miterlimit="10" d="M92.3,245.2"/>
	<path fill="none" stroke="#E6E6E6" stroke-miterlimit="10" d="M83.7,232.1"/>
	<path fill="none" stroke="#E6E6E6" stroke-miterlimit="10" d="M92.3,219.2"/>
	<path fill="#B8B8B8" d="M233.4,201.1H84.6v76.2c-0.2,0.2,148.8-0.1,148.8,0V201.1z"/>
	<path fill="none" stroke="#E6E6E6" stroke-miterlimit="10" d="M278.3,361.2"/>
	<path fill="none" stroke="#E6E6E6" stroke-miterlimit="10" d="M269.7,348.1"/>
	<path fill="none" stroke="#E6E6E6" stroke-miterlimit="10" d="M278.3,335.2"/>
	<path fill="#B8B8B8" d="M419.4,317.1H270.6v76.2c-0.2,0.2,148.8-0.1,148.8,0V317.1z"/>
</g>
<g id="content-a">
	<rect x="73.4" y="193.1" opacity="0.44" fill="#FFFFFF" width="175.4" height="98"/>
</g>
<g id="content-b">
	<rect x="259.8" y="193.6" opacity="0.44" fill="#FFFFFF" width="175.4" height="97.8"/>
</g>
<g id="content-c">
	<rect x="73.4" y="309.7" opacity="0.44" fill="#FFFFFF" width="175.4" height="97.8"/>
</g>
<g id="content-d">
	<rect x="259.4" y="309.1" opacity="0.44" fill="#FFFFFF" width="175.4" height="98"/>
</g>
</svg>
