<?xml version="1.0" encoding="utf-8"?>
<!-- Generator: Adobe Illustrator 18.0.0, SVG Export Plug-In . SVG Version: 6.00 Build 0)  -->
<!DOCTYPE svg PUBLIC "-//W3C//DTD SVG 1.1//EN" "http://www.w3.org/Graphics/SVG/1.1/DTD/svg11.dtd">
<svg version="1.1" xmlns="http://www.w3.org/2000/svg" xmlns:xlink="http://www.w3.org/1999/xlink" x="0px" y="0px"
	 viewBox="0 83 500 642" enable-background="new 0 83 500 642" xml:space="preserve">
<g id="Layer_1">
	<g id="Layer_1_1_">
		<rect x="22.3" y="102.3" fill="#E6E6E6" width="457.5" height="603"/>
		<circle fill="#FF766A" cx="37.9" cy="114.8" r="5"/>
		<circle fill="#FFF874" cx="53.1" cy="114.8" r="5"/>
		<circle fill="#7FFFA4" cx="68.4" cy="114.8" r="5"/>
		<path fill="#E6E6E6" d="M172.8,322.9V322l-3.4,3.4l3.4,3.4V328l-2.6-2.6L172.8,322.9z"/>
		<path fill="#F2F2F2" d="M141.8,389.6H69.5c-1.1,0-2-0.9-2-2v-86.1c0-1.1,0.9-2,2-2h72.2c1.1,0,2,0.9,2,2v86.1
			C143.8,388.8,142.9,389.6,141.8,389.6z"/>
		<text transform="matrix(1 0 0 1 73.1543 363.036)" fill="#525657" font-family="'Montserrat-Bold'" font-size="6.8624">Coach</text>
		<g>
			<text transform="matrix(1 0 0 1 73.4327 380.2777)" fill="#787E80" font-family="'Montserrat-Regular'" font-size="6.0999">View</text>
		</g>
		<path fill="#E6E6E6" d="M73.6,322.9V322l-3.4,3.4l3.4,3.4V328l-2.6-2.6L73.6,322.9z"/>
		<path fill="#E6E6E6" d="M137.6,328.1v0.8l3.4-3.4l-3.4-3.4v0.8l2.6,2.6L137.6,328.1z"/>
		<path fill="#B8B8B8" d="M142.7,298.5H68.6c-0.6,0-1.1,0.5-1.1,1.1v49.9c-0.1,0.1,76.2-0.1,76.2,0v-49.9
			C143.8,299,143.3,298.5,142.7,298.5z"/>
		<text transform="matrix(1 0 0 1 300.999 146.2579)" font-family="'Khula-Bold'" font-size="7.6249">About</text>
		<text transform="matrix(1 0 0 1 346.749 146.2579)" font-family="'Khula-Bold'" font-size="7.6249">Shop</text>
		<text transform="matrix(1 0 0 1 384.8729 146.2579)" font-family="'Khula-Bold'" font-size="7.6249">Contact</text>
		<g>
			<path d="M448,146.6c-0.6,0-1,0.5-1,1c0,0.6,0.4,1,1,1s1-0.5,1-1C449.1,147.1,448.6,146.6,448,146.6z M445,138.4v1h1l1.8,3.9
				l-0.7,1.2c-0.1,0.1-0.1,0.3-0.1,0.5c0,0.6,0.5,1,1,1h6.1v-1h-5.9c-0.1,0-0.1-0.1-0.1-0.1s0,0,0-0.1l0.5-0.8h3.8
				c0.4,0,0.7-0.2,0.9-0.5l1.8-3.3c0-0.1,0.1-0.2,0.1-0.2c0-0.3-0.2-0.5-0.5-0.5h-7.5l-0.5-1L445,138.4L445,138.4z M453.1,146.6
				c-0.6,0-1,0.5-1,1c0,0.6,0.4,1,1,1s1-0.5,1-1S453.7,146.6,453.1,146.6z"/>
			<path fill="none" d="M444.5,137.4h12.2v12.2h-12.2V137.4z"/>
		</g>
		<line fill="none" stroke="#999999" stroke-width="4" stroke-miterlimit="10" x1="-412" y1="720.8" x2="-47" y2="720.8"/>
		<path fill="none" stroke="#E6E6E6" stroke-miterlimit="10" d="M87.3,649"/>
		<path fill="none" stroke="#E6E6E6" stroke-miterlimit="10" d="M78.7,635.8"/>
		<path fill="none" stroke="#E6E6E6" stroke-miterlimit="10" d="M87.3,623"/>
		<path fill="none" stroke="#E6E6E6" stroke-miterlimit="10" d="M221.7,623"/>
		<path fill="none" stroke="#E6E6E6" stroke-miterlimit="10" d="M230.2,636"/>
		<text transform="matrix(1 0 0 1 43.9931 146.2579)" font-family="'Khula-Bold'" font-size="7.6249">BRAND</text>
		<rect x="54.7" y="215.7" fill="#B8B8B8" width="65.2" height="10.1"/>
		<rect x="134.7" y="215.7" fill="#B8B8B8" width="25.9" height="10.1"/>
		<rect x="214.7" y="215.7" fill="#B8B8B8" width="91.9" height="10.1"/>
		<rect x="174.7" y="215.7" fill="#B8B8B8" width="25.9" height="10.1"/>
		<rect x="54.7" y="235.7" fill="#B8B8B8" width="73" height="10.1"/>
		<rect x="144.3" y="235.7" fill="#B8B8B8" width="29.1" height="10.1"/>
		<rect x="234" y="235.7" fill="#B8B8B8" width="103" height="10.1"/>
		<rect x="189.2" y="235.7" fill="#B8B8B8" width="29.1" height="10.1"/>
		<rect x="-440.9" y="106.8" fill="#B8B8B8" width="391.1" height="64.5"/>
		<circle fill="#E6E6E6" cx="-411" cy="139" r="20.8"/>
		<rect x="-367.7" y="128.9" fill="#E6E6E6" width="71" height="10.1"/>
		<rect x="-248" y="119.7" fill="#E6E6E6" width="71" height="8.7"/>
		<rect x="-170.6" y="119.3" fill="#E6E6E6" width="28" height="9"/>
		<rect x="-213.7" y="131.6" fill="#E6E6E6" width="71" height="8.7"/>
		<rect x="-248" y="131.3" fill="#E6E6E6" width="28" height="9"/>
		<rect x="-248" y="142.6" fill="#E6E6E6" width="71" height="8.7"/>
		<rect x="-170.6" y="142.3" fill="#E6E6E6" width="28" height="9"/>
		<rect x="-440.9" y="196.8" fill="#B8B8B8" width="391.1" height="64.5"/>
		<circle fill="#E6E6E6" cx="-411" cy="229" r="20.8"/>
		<rect x="-367.7" y="218.9" fill="#E6E6E6" width="71" height="10.1"/>
		<rect x="-248" y="209.6" fill="#E6E6E6" width="71" height="8.7"/>
		<rect x="-170.6" y="209.3" fill="#E6E6E6" width="28" height="9"/>
		<rect x="-213.7" y="221.6" fill="#E6E6E6" width="71" height="8.7"/>
		<rect x="-248" y="221.3" fill="#E6E6E6" width="28" height="9"/>
		<rect x="-248" y="232.6" fill="#E6E6E6" width="71" height="8.7"/>
		<rect x="-170.6" y="232.3" fill="#E6E6E6" width="28" height="9"/>
		<rect x="-440.9" y="279.8" fill="#B8B8B8" width="391.1" height="64.5"/>
		<circle fill="#E6E6E6" cx="-411" cy="312" r="20.8"/>
		<rect x="-367.7" y="302" fill="#E6E6E6" width="71" height="10.1"/>
		<rect x="-248" y="292.6" fill="#E6E6E6" width="71" height="8.7"/>
		<rect x="-170.6" y="292.4" fill="#E6E6E6" width="28" height="9"/>
		<rect x="-213.7" y="304.6" fill="#E6E6E6" width="71" height="8.7"/>
		<rect x="-248" y="304.4" fill="#E6E6E6" width="28" height="9"/>
		<rect x="-248" y="315.6" fill="#E6E6E6" width="71" height="8.7"/>
		<rect x="-170.6" y="315.4" fill="#E6E6E6" width="28" height="9"/>
		<rect x="54.7" y="178.4" fill="#B8B8B8" width="104.9" height="23.6"/>
		<path fill="#F2F2F2" d="M233.8,389.6h-72.2c-1.1,0-2-0.9-2-2v-86.1c0-1.1,0.9-2,2-2h72.2c1.1,0,2,0.9,2,2v86.1
			C235.8,388.8,234.9,389.6,233.8,389.6z"/>
		<g>
			<text transform="matrix(1 0 0 1 165.4664 380.2777)" fill="#787E80" font-family="'Montserrat-Regular'" font-size="6.0999">View</text>
		</g>
		<path fill="#E6E6E6" d="M165.7,322.9V322l-3.4,3.4l3.4,3.4V328l-2.6-2.6L165.7,322.9z"/>
		<path fill="#B8B8B8" d="M234.7,298.5h-74.1c-0.6,0-1.1,0.5-1.1,1.1v49.9c-0.1,0.1,76.2-0.1,76.2,0v-49.9
			C235.8,299,235.3,298.5,234.7,298.5z"/>
		<path fill="#F2F2F2" d="M334.9,389.6h-72.2c-1.1,0-2-0.9-2-2v-86.1c0-1.1,0.9-2,2-2h72.2c1.1,0,2,0.9,2,2v86.1
			C336.9,388.8,336,389.6,334.9,389.6z"/>
		<g>
			<text transform="matrix(1 0 0 1 266.5531 380.2777)" fill="#787E80" font-family="'Montserrat-Regular'" font-size="6.0999">View</text>
		</g>
		<path fill="#E6E6E6" d="M266.8,322.9V322l-3.4,3.4l3.4,3.4V328l-2.6-2.6L266.8,322.9z"/>
		<path fill="#B8B8B8" d="M335.8,298.5h-74.1c-0.6,0-1.1,0.5-1.1,1.1v49.9c-0.1,0.1,76.2-0.1,76.2,0v-49.9
			C336.9,299,336.4,298.5,335.8,298.5z"/>
		<path fill="#F2F2F2" d="M435.9,389.6h-72.2c-1.1,0-2-0.9-2-2v-86.1c0-1.1,0.9-2,2-2h72.2c1.1,0,2,0.9,2,2v86.1
			C437.9,388.8,437,389.6,435.9,389.6z"/>
		<g>
			<text transform="matrix(1 0 0 1 367.5531 380.2777)" fill="#787E80" font-family="'Montserrat-Regular'" font-size="6.0999">View</text>
		</g>
		<path fill="#E6E6E6" d="M367.8,322.9V322l-3.4,3.4l3.4,3.4V328l-2.6-2.6L367.8,322.9z"/>
		<path fill="#B8B8B8" d="M436.8,298.5h-74.1c-0.6,0-1.1,0.5-1.1,1.1v49.9c-0.1,0.1,76.2-0.1,76.2,0v-49.9
			C437.9,299,437.4,298.5,436.8,298.5z"/>
		<text transform="matrix(1 0 0 1 164 362.0359)" fill="#525657" font-family="'Montserrat-Bold'" font-size="6.8624">Coach</text>
		<text transform="matrix(1 0 0 1 265.1 362.0358)" fill="#525657" font-family="'Montserrat-Bold'" font-size="6.8624">Coach</text>
		<text transform="matrix(1 0 0 1 367.5531 363.0359)" fill="#525657" font-family="'Montserrat-Bold'" font-size="6.8624">Coach</text>
	</g>
</g>
<g id="content-a">
	<g id="content-a_1_">
		<rect x="49.6" y="166.9" opacity="0.5" fill="#F0F0F0" enable-background="new    " width="400.8" height="89.2"/>
	</g>
</g>
</svg>
