<?xml version="1.0" encoding="utf-8"?>
<!-- Generator: Adobe Illustrator 18.0.0, SVG Export Plug-In . SVG Version: 6.00 Build 0)  -->
<!DOCTYPE svg PUBLIC "-//W3C//DTD SVG 1.1//EN" "http://www.w3.org/Graphics/SVG/1.1/DTD/svg11.dtd">
<svg version="1.1" xmlns="http://www.w3.org/2000/svg" xmlns:xlink="http://www.w3.org/1999/xlink" x="0px" y="0px"
	 viewBox="0 0 500 388.7" enable-background="new 0 0 500 388.7" xml:space="preserve">
<g id="Layer_1">
	<rect x="21" y="16" fill="#E6E6E6" width="460.4" height="359.1"/>
	<circle fill="#FF766A" cx="36.7" cy="28.6" r="5"/>
	<circle fill="#FFF874" cx="52.1" cy="28.6" r="5"/>
	<circle fill="#7FFFA4" cx="67.4" cy="28.6" r="5"/>
	<text transform="matrix(1 0 0 1 301.4787 60.1777)" font-family="'Khula-Bold'" font-size="7.6725">About</text>
	<text transform="matrix(1 0 0 1 347.5138 60.1777)" font-family="'Khula-Bold'" font-size="7.6725">Shop</text>
	<text transform="matrix(1 0 0 1 385.8762 60.1777)" font-family="'Khula-Bold'" font-size="7.6725">Contact</text>
	<g>
		<path d="M449.4,60.5c-0.6,0-1,0.5-1,1s0.5,1,1,1s1-0.5,1-1S450,60.5,449.4,60.5z M446.4,52.3v1h1l1.8,3.9l-0.7,1.3
			c-0.1,0.1-0.1,0.3-0.1,0.5c0,0.6,0.5,1,1,1h6.1v-1h-5.9c-0.1,0-0.1-0.1-0.1-0.1c0,0,0,0,0-0.1l0.5-0.8h3.8c0.4,0,0.7-0.2,0.9-0.5
			l1.8-3.3c0-0.1,0.1-0.2,0.1-0.2c0-0.3-0.2-0.5-0.5-0.5h-7.6l-0.5-1H446.4z M454.6,60.5c-0.6,0-1,0.5-1,1s0.5,1,1,1s1-0.5,1-1
			S455.1,60.5,454.6,60.5z"/>
		<path fill="none" d="M445.9,51.3h12.3v12.3h-12.3V51.3z"/>
	</g>
	<path fill="none" stroke="#E6E6E6" stroke-miterlimit="10" d="M86.4,566"/>
	<path fill="none" stroke="#E6E6E6" stroke-miterlimit="10" d="M77.8,552.9"/>
	<path fill="none" stroke="#E6E6E6" stroke-miterlimit="10" d="M86.4,539.8"/>
	<path fill="none" stroke="#E6E6E6" stroke-miterlimit="10" d="M221.6,539.8"/>
	<path fill="none" stroke="#E6E6E6" stroke-miterlimit="10" d="M230.3,552.9"/>
	<text transform="matrix(1 0 0 1 42.8674 60.1777)" font-family="'Khula-Bold'" font-size="7.6725">BRAND</text>
	<path fill="#B8B8B8" d="M237.2,85.8H64.5v115c-0.2,0.3,172.6-0.2,172.6,0V85.8z"/>
	<circle fill="#B8B8B8" cx="457.4" cy="52.8" r="4.4"/>
	<text transform="matrix(1 0 0 1 455.8958 54.5519)" fill="#E6E6E6" font-family="'Khula-Regular'" font-size="6.138">1</text>
	<g>
		<rect x="278.7" y="106.8" fill="#B8B8B8" width="94.9" height="17.7"/>
		<rect x="278.7" y="129.8" fill="#B8B8B8" width="131.1" height="6.3"/>
		<rect x="278.7" y="141.1" fill="#B8B8B8" width="125.2" height="6.3"/>
		<rect x="278.7" y="152.4" fill="#B8B8B8" width="137.5" height="6.3"/>
		<rect x="278.7" y="163.7" fill="#B8B8B8" width="121.5" height="6.3"/>
		<rect x="278.7" y="175" fill="#B8B8B8" width="125.2" height="6.3"/>
	</g>
	<path fill="none" stroke="#525657" stroke-miterlimit="10" d="M346.8,243.1H152.9c-1.1,0-2-0.9-2-2v-18.3c0-1.1,0.9-2,2-2h193.9
		c1.1,0,2,0.9,2,2v18.3C348.8,242.2,347.9,243.1,346.8,243.1z"/>
	<text transform="matrix(1 0 0 1 160.9172 235.3183)" fill="#B3B3B3" font-family="'Montserrat-Regular'" font-size="8.9276">Name</text>
	<path fill="none" stroke="#525657" stroke-miterlimit="10" d="M346.8,276.6H152.9c-1.1,0-2-0.9-2-2v-18.3c0-1.1,0.9-2,2-2h193.9
		c1.1,0,2,0.9,2,2v18.3C348.8,275.7,347.9,276.6,346.8,276.6z"/>
	<text transform="matrix(1 0 0 1 160.9172 268.7971)" fill="#B3B3B3" font-family="'Montserrat-Regular'" font-size="8.9276">Email</text>
	<path fill="none" stroke="#525657" stroke-miterlimit="10" d="M346.8,330.8H152.9c-1.1,0-2-0.9-2-2v-39c0-1.1,0.9-2,2-2h193.9
		c1.1,0,2,0.9,2,2v39C348.8,329.9,347.9,330.8,346.8,330.8z"/>
	<text transform="matrix(1 0 0 1 160.9172 302.2755)" fill="#B3B3B3" font-family="'Montserrat-Regular'" font-size="8.9276">Phone</text>
	<g>
		<path fill="#B8B8B8" d="M347.3,359.4H245.7c-1.1,0-2-0.9-2-2v-17.1c0-1.1,0.9-2,2-2h101.6c1.1,0,2,0.9,2,2v17.1
			C349.3,358.5,348.4,359.4,347.3,359.4z"/>
		<text transform="matrix(1 0 0 1 273.8262 351.7822)" fill="#FFFFFF" font-family="'Montserrat-Regular'" font-size="8.4476">Continue</text>
	</g>
</g>
<g id="content-a">
	<rect x="257.2" y="85.2" opacity="0.44" fill="#FFFFFF" width="180.6" height="115.8"/>
</g>
</svg>
