<?xml version="1.0" encoding="utf-8"?>
<!-- Generator: Adobe Illustrator 18.0.0, SVG Export Plug-In . SVG Version: 6.00 Build 0)  -->
<!DOCTYPE svg PUBLIC "-//W3C//DTD SVG 1.1//EN" "http://www.w3.org/Graphics/SVG/1.1/DTD/svg11.dtd">
<svg version="1.1" xmlns="http://www.w3.org/2000/svg" xmlns:xlink="http://www.w3.org/1999/xlink" x="0px" y="0px"
	 viewBox="0 0 500 174.2" enable-background="new 0 0 500 174.2" xml:space="preserve">
<g id="Layer_1">
	<path fill="#B8B8B8" d="M473,14.2H29v137c-0.6,0.3,444-0.2,444,0V14.2z"/>
	<line fill="none" stroke="#E6E6E6" stroke-width="6" stroke-miterlimit="10" x1="73" y1="50.8" x2="426" y2="50.8"/>
	
		<text transform="matrix(1 0 0 1 72.2997 39.2058)" fill="#E6E6E6" font-family="'Montserrat-Bold'" font-size="11.8394" letter-spacing="1">FOOTER</text>
	<g>
		<g>
			<rect x="121" y="74.8" fill="#E6E6E6" width="65" height="10.5"/>
			<rect x="121" y="94.8" fill="#E6E6E6" width="65" height="10.5"/>
			<rect x="121" y="114.8" fill="#E6E6E6" width="65" height="10.5"/>
		</g>
	</g>
	<g>
		<g>
			<rect x="224" y="74.8" fill="#E6E6E6" width="65" height="10.5"/>
			<rect x="224" y="94.8" fill="#E6E6E6" width="65" height="10.5"/>
			<rect x="224" y="114.8" fill="#E6E6E6" width="65" height="10.5"/>
		</g>
	</g>
	<g>
		<g>
			<rect x="331" y="74.8" fill="#E6E6E6" width="65" height="10.5"/>
			<rect x="331" y="94.8" fill="#E6E6E6" width="65" height="10.5"/>
			<rect x="331" y="114.8" fill="#E6E6E6" width="65" height="10.5"/>
		</g>
	</g>
</g>
<g id="content-a">
	<rect x="110.7" y="68.2" opacity="0.38" fill="#FFFFFF" width="85" height="66.5"/>
</g>
<g id="content-b">
	<rect x="213.7" y="68.2" opacity="0.38" fill="#FFFFFF" width="85" height="66.5"/>
</g>
<g id="content-c">
	<rect x="320.7" y="68.2" opacity="0.38" fill="#FFFFFF" width="85" height="66.5"/>
</g>
</svg>
