<?xml version="1.0" encoding="utf-8"?>
<!-- Generator: Adobe Illustrator 18.0.0, SVG Export Plug-In . SVG Version: 6.00 Build 0)  -->
<!DOCTYPE svg PUBLIC "-//W3C//DTD SVG 1.1//EN" "http://www.w3.org/Graphics/SVG/1.1/DTD/svg11.dtd">
<svg version="1.1" xmlns="http://www.w3.org/2000/svg" xmlns:xlink="http://www.w3.org/1999/xlink" x="0px" y="0px"
	 viewBox="0 0 500 660" enable-background="new 0 0 500 660" xml:space="preserve">
<g id="Layer_1">
	<rect x="22.3" y="31.6" fill="#E6E6E6" width="457.5" height="603"/>
	<circle fill="#FF766A" cx="37.9" cy="44.1" r="5"/>
	<circle fill="#FFF874" cx="53.1" cy="44.1" r="5"/>
	<circle fill="#7FFFA4" cx="68.4" cy="44.1" r="5"/>
	<rect x="22.3" y="57.8" fill="#F0F0F0" width="457.4" height="228.7"/>
	<path fill="#F2F2F2" d="M429.5,398.9h-72.2c-1.1,0-2-0.9-2-2v-86.1c0-1.1,0.9-2,2-2h72.2c1.1,0,2,0.9,2,2v86.1
		C431.5,398,430.6,398.9,429.5,398.9z"/>
	<text transform="matrix(1 0 0 1 360.9016 372.286)" fill="#525657" font-family="'Montserrat-Bold'" font-size="6.8624">Product</text>
	<line fill="none" stroke="#999999" stroke-miterlimit="10" x1="361" y1="379.5" x2="425" y2="379.5"/>
	<g>
		<text transform="matrix(1 0 0 1 361.1797 389.5277)" fill="#787E80" font-family="'Montserrat-Regular'" font-size="6.0999">Colors</text>
	</g>
	<path fill="#787E80" d="M392,387l-1.3,1.3l-1.3-1.3l-0.4,0.4l1.7,1.7l1.7-1.7L392,387z"/>
	<path fill="#E6E6E6" d="M361.4,332.1l0-0.8l-3.4,3.4l3.4,3.4l0-0.8l-2.6-2.6L361.4,332.1z"/>
	<path fill="#E6E6E6" d="M425.4,337.4l0,0.8l3.4-3.4l-3.4-3.4l0,0.8l2.6,2.6L425.4,337.4z"/>
	<path fill="#B8B8B8" d="M430.4,307.7h-74.1c-0.6,0-1.1,0.5-1.1,1.1v49.9c-0.1,0.1,76.2-0.1,76.2,0v-49.9
		C431.5,308.2,431,307.7,430.4,307.7z"/>
	<circle fill="#525657" stroke="#FFFFFF" stroke-miterlimit="10" cx="417.7" cy="358.5" r="7.7"/>
	<text transform="matrix(1 0 0 1 411.8857 360.6806)" fill="#FFFFFF" font-family="'Khula-Regular'" font-size="6.0999">$79</text>
	<path fill="#F2F2F2" d="M334.2,398.9H262c-1.1,0-2-0.9-2-2v-86.1c0-1.1,0.9-2,2-2h72.2c1.1,0,2,0.9,2,2v86.1
		C336.2,398,335.3,398.9,334.2,398.9z"/>
	<text transform="matrix(1 0 0 1 265.5897 372.286)" fill="#525657" font-family="'Montserrat-Bold'" font-size="6.8624">Product</text>
	<line fill="none" stroke="#999999" stroke-miterlimit="10" x1="265" y1="379.5" x2="330" y2="379.5"/>
	<g>
		<text transform="matrix(1 0 0 1 265.8692 389.5277)" fill="#787E80" font-family="'Montserrat-Regular'" font-size="6.0999">Colors</text>
	</g>
	<path fill="#787E80" d="M296.7,387l-1.3,1.3L294,387l-0.4,0.4l1.7,1.7l1.7-1.7L296.7,387z"/>
	<path fill="#E6E6E6" d="M266.1,332.1l0-0.8l-3.4,3.4l3.4,3.4l0-0.8l-2.6-2.6L266.1,332.1z"/>
	<path fill="#E6E6E6" d="M330.1,337.4l0,0.8l3.4-3.4l-3.4-3.4l0,0.8l2.6,2.6L330.1,337.4z"/>
	<path fill="#B8B8B8" d="M335.1,307.7H261c-0.6,0-1.1,0.5-1.1,1.1v49.9c-0.1,0.1,76.2-0.1,76.2,0v-49.9
		C336.2,308.2,335.7,307.7,335.1,307.7z"/>
	<circle fill="#525657" stroke="#FFFFFF" stroke-miterlimit="10" cx="322.4" cy="358.5" r="7.7"/>
	<text transform="matrix(1 0 0 1 316.5743 360.6806)" fill="#FFFFFF" font-family="'Khula-Regular'" font-size="6.0999">$79</text>
	<path fill="#F2F2F2" d="M238.9,398.9h-72.2c-1.1,0-2-0.9-2-2v-86.1c0-1.1,0.9-2,2-2h72.2c1.1,0,2,0.9,2,2v86.1
		C240.9,398,240,398.9,238.9,398.9z"/>
	<text transform="matrix(1 0 0 1 170.2783 372.286)" fill="#525657" font-family="'Montserrat-Bold'" font-size="6.8624">Product</text>
	<line fill="none" stroke="#999999" stroke-miterlimit="10" x1="170" y1="379.5" x2="234" y2="379.5"/>
	<g>
		<text transform="matrix(1 0 0 1 170.5573 389.5277)" fill="#787E80" font-family="'Montserrat-Regular'" font-size="6.0999">Colors</text>
	</g>
	<path fill="#787E80" d="M201.4,387l-1.3,1.3l-1.3-1.3l-0.4,0.4l1.7,1.7l1.7-1.7L201.4,387z"/>
	<path fill="#E6E6E6" d="M170.8,332.1l0-0.8l-3.4,3.4l3.4,3.4l0-0.8l-2.6-2.6L170.8,332.1z"/>
	<path fill="#E6E6E6" d="M234.8,337.4l0,0.8l3.4-3.4l-3.4-3.4l0,0.8l2.6,2.6L234.8,337.4z"/>
	<path fill="#B8B8B8" d="M239.8,307.7h-74.1c-0.6,0-1.1,0.5-1.1,1.1v49.9c-0.1,0.1,76.2-0.1,76.2,0v-49.9
		C240.9,308.2,240.4,307.7,239.8,307.7z"/>
	<circle fill="#525657" stroke="#FFFFFF" stroke-miterlimit="10" cx="227.1" cy="358.5" r="7.7"/>
	<text transform="matrix(1 0 0 1 221.2628 360.6806)" fill="#FFFFFF" font-family="'Khula-Regular'" font-size="6.0999">$79</text>
	<path fill="#F2F2F2" d="M139.8,398.9H67.5c-1.1,0-2-0.9-2-2v-86.1c0-1.1,0.9-2,2-2h72.2c1.1,0,2,0.9,2,2v86.1
		C141.8,398,140.9,398.9,139.8,398.9z"/>
	<text transform="matrix(1 0 0 1 71.1543 372.286)" fill="#525657" font-family="'Montserrat-Bold'" font-size="6.8624">Product</text>
	<line fill="none" stroke="#999999" stroke-miterlimit="10" x1="71" y1="379.5" x2="135" y2="379.5"/>
	<g>
		<text transform="matrix(1 0 0 1 71.4327 389.5277)" fill="#787E80" font-family="'Montserrat-Regular'" font-size="6.0999">Colors</text>
	</g>
	<path fill="#787E80" d="M102.2,387l-1.3,1.3l-1.3-1.3l-0.4,0.4l1.7,1.7l1.7-1.7L102.2,387z"/>
	<path fill="#E6E6E6" d="M71.6,332.1l0-0.8l-3.4,3.4l3.4,3.4l0-0.8l-2.6-2.6L71.6,332.1z"/>
	<path fill="#E6E6E6" d="M135.6,337.4l0,0.8l3.4-3.4l-3.4-3.4l0,0.8l2.6,2.6L135.6,337.4z"/>
	<path fill="#B8B8B8" d="M140.7,307.7H66.6c-0.6,0-1.1,0.5-1.1,1.1v49.9c-0.1,0.1,76.2-0.1,76.2,0v-49.9
		C141.8,308.2,141.3,307.7,140.7,307.7z"/>
	<circle fill="#525657" stroke="#FFFFFF" stroke-miterlimit="10" cx="128" cy="358.5" r="7.7"/>
	<text transform="matrix(1 0 0 1 122.1389 360.6806)" fill="#FFFFFF" font-family="'Khula-Regular'" font-size="6.0999">$79</text>
	<text transform="matrix(1 0 0 1 300.999 75.5079)" font-family="'Khula-Bold'" font-size="7.6249">About</text>
	<text transform="matrix(1 0 0 1 346.749 75.5079)" font-family="'Khula-Bold'" font-size="7.6249">Shop</text>
	<text transform="matrix(1 0 0 1 384.8729 75.5079)" font-family="'Khula-Bold'" font-size="7.6249">Contact</text>
	<g>
		<path d="M448,75.8c-0.6,0-1,0.5-1,1c0,0.6,0.4,1,1,1c0.6,0,1-0.5,1-1C449.1,76.3,448.6,75.8,448,75.8z M445,67.7v1h1l1.8,3.9
			l-0.7,1.2c-0.1,0.1-0.1,0.3-0.1,0.5c0,0.6,0.5,1,1,1h6.1v-1h-5.9c-0.1,0-0.1-0.1-0.1-0.1c0,0,0,0,0-0.1l0.5-0.8h3.8
			c0.4,0,0.7-0.2,0.9-0.5l1.8-3.3c0-0.1,0.1-0.2,0.1-0.2c0-0.3-0.2-0.5-0.5-0.5h-7.5l-0.5-1H445z M453.1,75.8c-0.6,0-1,0.5-1,1
			c0,0.6,0.4,1,1,1s1-0.5,1-1C454.1,76.3,453.7,75.8,453.1,75.8z"/>
		<path fill="none" d="M444.5,66.7h12.2v12.2h-12.2V66.7z"/>
	</g>
	<line fill="none" stroke="#999999" stroke-width="4" stroke-miterlimit="10" x1="67" y1="413" x2="432" y2="413"/>
	<path fill="#B8B8B8" d="M417.7,433.5h-144v76.2c-0.2,0.2,144-0.1,144,0V433.5z"/>
	<path fill="none" stroke="#E6E6E6" stroke-miterlimit="10" d="M87.3,578.2"/>
	<path fill="none" stroke="#E6E6E6" stroke-miterlimit="10" d="M78.7,565.1"/>
	<path fill="none" stroke="#E6E6E6" stroke-miterlimit="10" d="M87.3,552.2"/>
	<path fill="none" stroke="#E6E6E6" stroke-miterlimit="10" d="M221.7,552.2"/>
	<path fill="none" stroke="#E6E6E6" stroke-miterlimit="10" d="M230.2,565.2"/>
	<path fill="#B8B8B8" d="M228.4,534.1H79.6v76.2c-0.2,0.2,148.8-0.1,148.8,0V534.1z"/>
	<polygon fill="#E6E6E6" points="336,453.6 336,479.5 357,466.2 	"/>
	<polyline fill="none" stroke="#525657" stroke-miterlimit="10" points="52.6,154.1 44,167.1 52.6,180.1 	"/>
	<polyline fill="none" stroke="#525657" stroke-miterlimit="10" points="450.8,180.1 459.4,167.2 450.8,154.1 	"/>
	<text transform="matrix(1 0 0 1 43.9931 75.5079)" font-family="'Khula-Bold'" font-size="7.6249">BRAND</text>
	<rect x="195.7" y="207.3" fill="#B8B8B8" width="107.7" height="16.7"/>
	<rect x="216.9" y="227.3" fill="#B8B8B8" width="65.2" height="10.1"/>
	<g>
		<rect x="78.5" y="433.5" fill="#B8B8B8" width="94.9" height="17.7"/>
		<rect x="78.5" y="456.4" fill="#B8B8B8" width="131.1" height="6.3"/>
		<rect x="78.5" y="467.8" fill="#B8B8B8" width="125.2" height="6.3"/>
		<rect x="78.5" y="479.1" fill="#B8B8B8" width="137.5" height="6.3"/>
		<rect x="78.5" y="490.4" fill="#B8B8B8" width="121.5" height="6.3"/>
		<rect x="78.5" y="501.7" fill="#B8B8B8" width="125.2" height="6.3"/>
	</g>
	<g>
		<rect x="274.2" y="540.9" fill="#B8B8B8" width="94.9" height="17.7"/>
		<rect x="274.2" y="563.8" fill="#B8B8B8" width="131.1" height="6.3"/>
		<rect x="274.2" y="575.1" fill="#B8B8B8" width="125.2" height="6.3"/>
		<rect x="274.2" y="586.5" fill="#B8B8B8" width="137.5" height="6.3"/>
		<rect x="274.2" y="597.8" fill="#B8B8B8" width="121.5" height="6.3"/>
		<rect x="274.2" y="609.1" fill="#B8B8B8" width="125.2" height="6.3"/>
	</g>
</g>
<g id="content-a">
	<rect x="177" y="201" opacity="0.44" fill="#FFFFFF" width="144.4" height="47.5"/>
</g>
<g id="content-b">
	<rect x="68.4" y="423.6" opacity="0.44" fill="#FFFFFF" width="175.4" height="97.8"/>
</g>
<g id="content-d">
</g>
<g id="content-e">
</g>
<g id="content-c">
	<rect x="257.5" y="422.9" opacity="0.44" fill="#FFFFFF" width="175.4" height="98.5"/>
</g>
</svg>
