<?xml version="1.0" encoding="utf-8"?>
<!-- Generator: Adobe Illustrator 18.0.0, SVG Export Plug-In . SVG Version: 6.00 Build 0)  -->
<!DOCTYPE svg PUBLIC "-//W3C//DTD SVG 1.1//EN" "http://www.w3.org/Graphics/SVG/1.1/DTD/svg11.dtd">
<svg version="1.1" xmlns="http://www.w3.org/2000/svg" xmlns:xlink="http://www.w3.org/1999/xlink" x="0px" y="0px"
	 viewBox="0 0 500 800" enable-background="new 0 0 500 800" xml:space="preserve">
<g id="Layer_1">
	<g id="Layer_1_1_">
		<rect x="22.3" y="128.6" opacity="0.24" fill="#F0F0F0" enable-background="new    " width="457.4" height="228.7"/>
		<rect x="22.3" y="102.3" fill="#E6E6E6" width="457.5" height="603"/>
		<circle fill="#FF766A" cx="37.9" cy="114.8" r="5"/>
		<circle fill="#FFF874" cx="53.1" cy="114.8" r="5"/>
		<circle fill="#7FFFA4" cx="68.4" cy="114.8" r="5"/>
		<path fill="#F2F2F2" d="M-49.5,706.7h-72.2c-1.1,0-2-0.9-2-2v-86.1c0-1.1,0.9-2,2-2h72.2c1.1,0,2,0.9,2,2v86.1
			C-47.5,705.8-48.4,706.7-49.5,706.7z"/>
		<text transform="matrix(1 0 0 1 -118.0984 680.036)" fill="#525657" font-family="'Montserrat-Bold'" font-size="6.8624">Product</text>
		<line fill="none" stroke="#999999" stroke-miterlimit="10" x1="-118" y1="687.2" x2="-54" y2="687.2"/>
		<g>
			<text transform="matrix(1 0 0 1 -117.8203 697.2777)" fill="#787E80" font-family="'Montserrat-Regular'" font-size="6.0999">Colors</text>
		</g>
		<path fill="#787E80" d="M-87,694.8l-1.3,1.3l-1.3-1.3l-0.4,0.4l1.7,1.7l1.7-1.7L-87,694.8z"/>
		<path fill="#E6E6E6" d="M-117.6,639.8V639l-3.4,3.4l3.4,3.4v-0.8l-2.6-2.6L-117.6,639.8z"/>
		<path fill="#E6E6E6" d="M-53.6,645.2v0.8l3.4-3.4l-3.4-3.4v0.8l2.6,2.6L-53.6,645.2z"/>
		<path fill="#B8B8B8" d="M-48.6,615.5h-74.1c-0.6,0-1.1,0.5-1.1,1.1v49.9c-0.1,0.1,76.2-0.1,76.2,0v-49.9
			C-47.5,616-48,615.5-48.6,615.5z"/>
		<circle fill="#525657" stroke="#FFFFFF" stroke-miterlimit="10" cx="-61.3" cy="666.2" r="7.7"/>
		<text transform="matrix(1 0 0 1 -67.1143 668.4306)" fill="#FFFFFF" font-family="'Khula-Regular'" font-size="6.0999">$79</text>
		<path fill="#F2F2F2" d="M-144.8,706.7H-217c-1.1,0-2-0.9-2-2v-86.1c0-1.1,0.9-2,2-2h72.2c1.1,0,2,0.9,2,2v86.1
			C-142.8,705.8-143.7,706.7-144.8,706.7z"/>
		<text transform="matrix(1 0 0 1 -213.4103 680.036)" fill="#525657" font-family="'Montserrat-Bold'" font-size="6.8624">Product</text>
		<line fill="none" stroke="#999999" stroke-miterlimit="10" x1="-214" y1="687.2" x2="-149" y2="687.2"/>
		<g>
			<text transform="matrix(1 0 0 1 -213.1308 697.2777)" fill="#787E80" font-family="'Montserrat-Regular'" font-size="6.0999">Colors</text>
		</g>
		<path fill="#787E80" d="M-182.3,694.8l-1.3,1.3l-1.3-1.3l-0.4,0.4l1.7,1.7l1.7-1.7L-182.3,694.8z"/>
		<path fill="#E6E6E6" d="M-212.9,639.8V639l-3.4,3.4l3.4,3.4v-0.8l-2.6-2.6L-212.9,639.8z"/>
		<path fill="#E6E6E6" d="M-148.9,645.2v0.8l3.4-3.4l-3.4-3.4v0.8l2.6,2.6L-148.9,645.2z"/>
		<path fill="#B8B8B8" d="M-143.9,615.5H-218c-0.6,0-1.1,0.5-1.1,1.1v49.9c-0.1,0.1,76.2-0.1,76.2,0v-49.9
			C-142.8,616-143.3,615.5-143.9,615.5z"/>
		<circle fill="#525657" stroke="#FFFFFF" stroke-miterlimit="10" cx="-156.6" cy="666.2" r="7.7"/>
		<text transform="matrix(1 0 0 1 -162.4257 668.4306)" fill="#FFFFFF" font-family="'Khula-Regular'" font-size="6.0999">$79</text>
		<path fill="#F2F2F2" d="M-240.1,706.7h-72.2c-1.1,0-2-0.9-2-2v-86.1c0-1.1,0.9-2,2-2h72.2c1.1,0,2,0.9,2,2v86.1
			C-238.1,705.8-239,706.7-240.1,706.7z"/>
		<text transform="matrix(1 0 0 1 -308.7217 680.036)" fill="#525657" font-family="'Montserrat-Bold'" font-size="6.8624">Product</text>
		<line fill="none" stroke="#999999" stroke-miterlimit="10" x1="-309" y1="687.2" x2="-245" y2="687.2"/>
		<g>
			<text transform="matrix(1 0 0 1 -308.4427 697.2777)" fill="#787E80" font-family="'Montserrat-Regular'" font-size="6.0999">Colors</text>
		</g>
		<path fill="#787E80" d="M-277.6,694.8l-1.3,1.3l-1.3-1.3l-0.4,0.4l1.7,1.7l1.7-1.7L-277.6,694.8z"/>
		<path fill="#E6E6E6" d="M-308.2,639.8V639l-3.4,3.4l3.4,3.4v-0.8l-2.6-2.6L-308.2,639.8z"/>
		<path fill="#E6E6E6" d="M-244.2,645.2v0.8l3.4-3.4l-3.4-3.4v0.8l2.6,2.6L-244.2,645.2z"/>
		<path fill="#B8B8B8" d="M-239.2,615.5h-74.1c-0.6,0-1.1,0.5-1.1,1.1v49.9c-0.1,0.1,76.2-0.1,76.2,0v-49.9
			C-238.1,616-238.6,615.5-239.2,615.5z"/>
		<circle fill="#525657" stroke="#FFFFFF" stroke-miterlimit="10" cx="-251.9" cy="666.2" r="7.7"/>
		<text transform="matrix(1 0 0 1 -257.7372 668.4306)" fill="#FFFFFF" font-family="'Khula-Regular'" font-size="6.0999">$79</text>
		<path fill="#F2F2F2" d="M-339.2,706.7h-72.2c-1.1,0-2-0.9-2-2v-86.1c0-1.1,0.9-2,2-2h72.2c1.1,0,2,0.9,2,2v86.1
			C-337.2,705.8-338.1,706.7-339.2,706.7z"/>
		<text transform="matrix(1 0 0 1 -407.8457 680.036)" fill="#525657" font-family="'Montserrat-Bold'" font-size="6.8624">Product</text>
		<line fill="none" stroke="#999999" stroke-miterlimit="10" x1="-408" y1="687.2" x2="-344" y2="687.2"/>
		<g>
			<text transform="matrix(1 0 0 1 -407.5673 697.2777)" fill="#787E80" font-family="'Montserrat-Regular'" font-size="6.0999">Colors</text>
		</g>
		<path fill="#787E80" d="M-376.8,694.8l-1.3,1.3l-1.3-1.3l-0.4,0.4l1.7,1.7l1.7-1.7L-376.8,694.8z"/>
		<path fill="#E6E6E6" d="M-407.4,639.8V639l-3.4,3.4l3.4,3.4v-0.8l-2.6-2.6L-407.4,639.8z"/>
		<path fill="#E6E6E6" d="M-343.4,645.2v0.8l3.4-3.4l-3.4-3.4v0.8l2.6,2.6L-343.4,645.2z"/>
		<path fill="#B8B8B8" d="M-338.3,615.5h-74.1c-0.6,0-1.1,0.5-1.1,1.1v49.9c-0.1,0.1,76.2-0.1,76.2,0v-49.9
			C-337.2,616-337.7,615.5-338.3,615.5z"/>
		<circle fill="#525657" stroke="#FFFFFF" stroke-miterlimit="10" cx="-351" cy="666.2" r="7.7"/>
		<text transform="matrix(1 0 0 1 -356.8611 668.4306)" fill="#FFFFFF" font-family="'Khula-Regular'" font-size="6.0999">$79</text>
		<text transform="matrix(1 0 0 1 300.999 146.2579)" font-family="'Khula-Bold'" font-size="7.6249">About</text>
		<text transform="matrix(1 0 0 1 346.749 146.2579)" font-family="'Khula-Bold'" font-size="7.6249">Shop</text>
		<text transform="matrix(1 0 0 1 384.8729 146.2579)" font-family="'Khula-Bold'" font-size="7.6249">Contact</text>
		<g>
			<path d="M448,146.6c-0.6,0-1,0.5-1,1c0,0.6,0.4,1,1,1s1-0.5,1-1C449.1,147.1,448.6,146.6,448,146.6z M445,138.4v1h1l1.8,3.9
				l-0.7,1.2c-0.1,0.1-0.1,0.3-0.1,0.5c0,0.6,0.5,1,1,1h6.1v-1h-5.9c-0.1,0-0.1-0.1-0.1-0.1s0,0,0-0.1l0.5-0.8h3.8
				c0.4,0,0.7-0.2,0.9-0.5l1.8-3.3c0-0.1,0.1-0.2,0.1-0.2c0-0.3-0.2-0.5-0.5-0.5h-7.5l-0.5-1L445,138.4L445,138.4z M453.1,146.6
				c-0.6,0-1,0.5-1,1c0,0.6,0.4,1,1,1s1-0.5,1-1S453.7,146.6,453.1,146.6z"/>
			<path fill="none" d="M444.5,137.4h12.2v12.2h-12.2V137.4z"/>
		</g>
		<line fill="none" stroke="#999999" stroke-width="4" stroke-miterlimit="10" x1="-412" y1="720.8" x2="-47" y2="720.8"/>
		<path fill="none" stroke="#E6E6E6" stroke-miterlimit="10" d="M87.3,649"/>
		<path fill="none" stroke="#E6E6E6" stroke-miterlimit="10" d="M78.7,635.8"/>
		<path fill="none" stroke="#E6E6E6" stroke-miterlimit="10" d="M87.3,623"/>
		<path fill="none" stroke="#E6E6E6" stroke-miterlimit="10" d="M221.7,623"/>
		<path fill="none" stroke="#E6E6E6" stroke-miterlimit="10" d="M230.2,636"/>
		<polyline fill="none" stroke="#525657" stroke-miterlimit="10" points="52.6,224.9 44,237.9 52.6,250.9 		"/>
		<polyline fill="none" stroke="#525657" stroke-miterlimit="10" points="450.8,250.9 459.4,237.9 450.8,224.9 		"/>
		<text transform="matrix(1 0 0 1 43.9931 146.2579)" font-family="'Khula-Bold'" font-size="7.6249">BRAND</text>
		<rect x="195.7" y="218.1" fill="#B8B8B8" width="107.7" height="16.7"/>
		<rect x="216.9" y="238" fill="#B8B8B8" width="65.2" height="10.1"/>
		<g>
			<rect x="74.6" y="412" fill="#B8B8B8" width="127" height="17.7"/>
			<rect x="74.6" y="435" fill="#B8B8B8" width="175.4" height="6.3"/>
			<rect x="74.6" y="446.4" fill="#B8B8B8" width="167.5" height="6.3"/>
		</g>
		<g>
			<rect x="233.7" y="528.8" fill="#B8B8B8" width="127" height="17.7"/>
			<rect x="233.7" y="551.8" fill="#B8B8B8" width="175.4" height="6.3"/>
			<rect x="233.7" y="563" fill="#B8B8B8" width="167.5" height="6.3"/>
		</g>
		<g>
			<rect x="74.6" y="528.8" fill="#B8B8B8" width="60.6" height="17.7"/>
			<rect x="74.6" y="551.8" fill="#B8B8B8" width="83.7" height="6.3"/>
			<rect x="74.6" y="563" fill="#B8B8B8" width="79.9" height="6.3"/>
		</g>
		<g>
			<rect x="343" y="412" fill="#B8B8B8" width="60.6" height="17.7"/>
			<rect x="343" y="435" fill="#B8B8B8" width="83.7" height="6.3"/>
			<rect x="343" y="446.4" fill="#B8B8B8" width="79.9" height="6.3"/>
		</g>
	</g>
</g>
<g id="content_x5F_slideshow">
	<g id="content-slideshow">
		<rect x="22.3" y="128.6" opacity="0.19" fill="#F0F0F0" enable-background="new    " width="457.4" height="228.7"/>
	</g>
</g>
<g id="content_x5F_b">
	<g id="content-c">
		<rect x="308.4" y="389" opacity="0.44" fill="#FFFFFF" enable-background="new    " width="149" height="98.5"/>
	</g>
</g>
<g id="content_x5F_c">
	<g id="content-d">
		<rect x="50.4" y="497.2" opacity="0.44" fill="#FFFFFF" enable-background="new    " width="149" height="98.5"/>
	</g>
</g>
<g id="content_x5F_d">
	<g id="content-e">
		<rect x="211.9" y="497.5" opacity="0.44" fill="#FFFFFF" enable-background="new    " width="243.2" height="97.8"/>
	</g>
</g>
<g id="content_x5F_a">
	<g id="content-a">
		<rect x="177" y="201.7" opacity="0.44" fill="#FFFFFF" enable-background="new    " width="144.4" height="67.1"/>
	</g>
</g>
</svg>
