<?xml version="1.0" encoding="utf-8"?>
<!-- Generator: Adobe Illustrator 18.0.0, SVG Export Plug-In . SVG Version: 6.00 Build 0)  -->
<!DOCTYPE svg PUBLIC "-//W3C//DTD SVG 1.1//EN" "http://www.w3.org/Graphics/SVG/1.1/DTD/svg11.dtd">
<svg version="1.1" id="Layer_1" xmlns="http://www.w3.org/2000/svg" xmlns:xlink="http://www.w3.org/1999/xlink" x="0px" y="0px"
	 viewBox="0 483.6 231 63.4" enable-background="new 0 483.6 231 63.4" xml:space="preserve">
<g id="Layer_1_1_">
	<text transform="matrix(1 0 0 1 -380.1781 411.9091)" fill="#4D4D4D" font-family="'Khula-Bold'" font-size="31.6668">SELFIE BRANCH</text>
	<polyline fill="#4D4D4D" points="-331.2,308.4 -359.2,309 -378.9,310.3 -390.4,308.3 -410.3,309.8 -429.9,307.7 -443.6,304.6 
		-456.3,306.8 -464,308.2 -467.2,311.9 -464.6,307.3 -447.1,304.1 -456,304 -466.6,299.7 -465.2,299.7 -455.3,302.4 -443.6,302.9 
		-430.3,305.4 -411.2,307.4 -390.9,305.6 -378.8,306.9 -356.7,305.1 -329.8,303.6 	"/>
	<g>
		<text transform="matrix(1 0 0 1 -284.8418 248.4167)" fill="#4D4D4D" font-family="'Khula-Regular'" font-size="31.6668">branch</text>
	</g>
	<polygon fill="#4D4D4D" points="-299.7,211.7 -295.3,214.8 -294.4,219 -293.4,221.1 -293.4,225.4 -292.3,229.9 -293.3,237.7 
		-293.6,247.9 -291.4,249.3 -292.1,237.9 -290.8,229.8 -292.1,225.4 -292,220.9 -290.8,216.8 -288,213.7 -286.3,210.4 -285.5,206 
		-286.5,206 -287.2,209.9 -288.7,213.1 -290.8,215.3 -290.1,210.7 -289.4,208 -289.1,203.8 -290.5,203.1 -290.5,207.2 -291.4,210.2 
		-292,216.7 -292.6,219 -293.6,218.1 -294.6,214.5 -299,211.3 	"/>
	<g>
		<text transform="matrix(1 0 0 1 -282.3885 222.1917)" fill="#4D4D4D" font-family="'Khula-Regular'" font-size="31.6668">selfie</text>
	</g>
</g>
<g>
	<path fill="#4D4D4D" d="M402.1,431.2l-21.2,3.9c-0.5,0.1-0.9-0.2-1-0.7l-1.8-9.9c-0.1-0.5,0.2-0.9,0.7-1l21.2-3.9
		c0.5-0.1,0.9,0.2,1,0.7l1.8,9.9C402.9,430.7,402.6,431.1,402.1,431.2z"/>
	
		<rect x="380.7" y="421.7" transform="matrix(-0.9836 0.1804 -0.1804 -0.9836 851.584 777.2132)" fill="#E6E6E6" width="19.5" height="11.2"/>
</g>
<path fill="#E6E6E6" stroke="#FFFFFF" stroke-miterlimit="10" d="M278.6,307.9l-2.3,11.5l-7.7,2.3l5,61c22.1,7.5,43.4,8.5,63.4,0
	l5.5-61.7l-6.9-2.2l-4.4-10.7H278.6z"/>
<polygon fill="#FFFFFF" stroke="#999999" stroke-miterlimit="10" points="-333.1,244.1 -335.5,240 -335.5,235.5 -336.6,233.8 
	-337.6,240.2 -335,246.1 -335,254.3 -330.3,263 -326.3,283.4 -320.9,282.3 -326.3,262.2 -325.3,254.8 -322.3,247 -319,243.3 
	-317.5,238.3 -319,232.5 -320.6,230.8 -319.5,237.5 -320.7,241.7 -322.2,243.5 -323.6,241.7 -324.9,243.3 -323.6,245.3 
	-327.4,253.6 -328.2,259.1 -331.8,253.3 -332.6,246.3 -329.6,243.2 -331.4,242.7 "/>
<g>
	
		<rect x="-302.8" y="271.6" transform="matrix(-0.999 4.446295e-02 -4.446295e-02 -0.999 -572.4968 564.9515)" fill="#999999" width="20.6" height="9"/>
	
		<rect x="-301" y="272" transform="matrix(-0.999 4.446295e-02 -4.446295e-02 -0.999 -572.0005 564.9022)" fill="#FFFFFF" width="17.4" height="8.2"/>
</g>
<polyline fill="#4D4D4D" stroke="#FFFFFF" stroke-miterlimit="10" points="383.4,474 387,463.5 387.2,456.2 386,448.2 381.6,440.9 
	382.5,439.7 387.4,446.9 389.1,452.8 393.2,446.2 391.6,437.3 387.1,435.1 387,433 382.9,429.6 379.1,420.5 380.1,419.6 
	384.2,428.4 388.5,431.4 389.4,434.4 391.7,435.3 394.3,432.9 396.6,432.4 393.8,437 395.7,446.7 390.2,456.4 390.4,463.9 
	387.5,473.7 "/>
<g>
	<text transform="matrix(1 0 0 1 279.7011 329.7494)" fill="#4D4D4D" font-family="'Khula-Bold'" font-size="13.2932">BRANCH</text>
</g>
<g>
	<text transform="matrix(1 0 0 1 285.1337 320.0937)" fill="#4D4D4D" font-family="'Khula-Bold'" font-size="13.2932">SELFIE</text>
</g>
<g>
	<path fill="#4D4D4D" d="M433.4,342.4l-21.6,1c-0.5,0-0.8-0.3-0.9-0.8l-0.5-10.1c0-0.5,0.3-0.8,0.8-0.9l21.6-1
		c0.5,0,0.8,0.3,0.9,0.8l0.5,10.1C434.1,342,433.8,342.4,433.4,342.4z"/>
	
		<rect x="412.5" y="331.4" transform="matrix(-0.9988 4.874267e-02 -4.874267e-02 -0.9988 860.3831 653.1154)" fill="#E6E6E6" width="19.5" height="11.2"/>
</g>
<polyline fill="#4D4D4D" stroke="#FFFFFF" stroke-miterlimit="10" points="417.3,381 420.8,371 420.9,363.9 419.8,356.2 
	415.6,349.2 415.8,346.1 413.5,343.3 415.3,343.3 416.6,344.2 418.1,341.4 419.9,342.7 417.4,345.6 417.5,348.4 421.2,354.9 
	422.8,360.6 426.7,354.3 425.2,345.7 420.9,343.6 420.8,341.5 422.2,340 423.1,342.9 426.5,344.4 427.9,343.5 430.1,342.3 
	432.2,342.4 427.9,345.7 428.6,349.7 429.2,354.7 423.9,364.1 424,371.4 421.2,380.8 "/>
<polyline fill="#4D4D4D" stroke="#FFFFFF" stroke-miterlimit="10" points="434.1,333.1 434.9,331.5 435.8,332.4 434.1,335.2 "/>
<polyline fill="#4D4D4D" stroke="#FFFFFF" stroke-miterlimit="10" points="410.4,336.6 408.8,334.4 411.7,329.6 412.2,330.7 
	410.5,334.4 "/>
<g>
	<path fill="#4D4D4D" d="M398.8,346.1l-21.6,1c-0.5,0-0.8-0.3-0.9-0.8l-0.5-10.1c0-0.5,0.3-0.8,0.8-0.9l21.6-1
		c0.5,0,0.8,0.3,0.9,0.8l0.5,10.1C399.6,345.7,399.2,346.1,398.8,346.1z"/>
	
		<rect x="378" y="335.1" transform="matrix(-0.9988 4.874267e-02 -4.874267e-02 -0.9988 791.5532 662.1783)" fill="#E6E6E6" width="19.5" height="11.2"/>
</g>
<path fill="#4D4D4D" stroke="#FFFFFF" stroke-miterlimit="10" d="M378.4,387.7l3.7-10.5l0.1-7.3l-1.2-8l-4.4-7.3l0.9-1.2l4.9,7.2
	l1.7,5.9l4.1-6.6l-1.6-8.9l-4.5-2.2l-0.1-2.2l-3.1-1.2l-1.2-2.3l0.3-1.8l2.2,2.6l3.4,1.2l0.9,3l2.3,0.9c0,0,0-2.1,0-2h1.5l0.2,1.1
	l2.3-1.6l3.1-3.2l2.6-5.4l0.8,2.2l-2.5,4.8l-2.3,2.5l-3.6,3.4l1.9,9.7l-5.5,9.7l0.2,7.6l-2.9,9.8"/>
<polyline fill="#4D4D4D" points="386.1,334.5 386,333 386.8,332.1 387,334.5 "/>
<g>
	<g>
		<path fill="#4D4D4D" d="M318.7,346.9l-21.6,1c-0.5,0-0.8-0.3-0.9-0.8l-0.5-10.1c0-0.5,0.3-0.8,0.8-0.9l21.6-1
			c0.5,0,0.8,0.3,0.9,0.8l0.5,10.1C319.5,346.5,319.2,346.9,318.7,346.9z"/>
		
			<rect x="297.9" y="336" transform="matrix(-0.9988 4.874267e-02 -4.874267e-02 -0.9988 631.5115 667.741)" fill="#E6E6E6" width="19.5" height="11.2"/>
	</g>
	<path fill="#4D4D4D" stroke="#FFFFFF" stroke-miterlimit="10" d="M298.3,387.8l3.7-10.5l0.1-7.3l-1.2-8l-4.4-7.3l0.9-1.2l4.9,7.2
		l1.7,5.9l4.1-6.6l-1.6-8.9l-4.5-2.2l-0.1-2.2l-3.1-1.2l-1.2-2.3l0.3-1.8l2.2,2.6l3.4,1.2l0.9,3l2.3,0.9c0,0,0-2.1,0-2h1.5l0.2,1.1
		l2.3-1.6l3.1-3.2l2.6-5.4l0.8,2.2l-2.5,4.8l-2.3,2.5l-3.6,3.4l1.9,9.7l-5.5,9.7l0.2,7.6l-3.1,10.7"/>
	<polyline fill="#4D4D4D" points="306,335.3 305.9,333.8 306.7,332.9 306.9,335.3 	"/>
</g>
<polyline fill="#4D4D4D" stroke="#FFFFFF" stroke-miterlimit="10" points="35.8,398.1 39.5,387.6 39.6,380.3 38.4,372.3 34,365 
	34.9,363.8 39.8,371 41.5,376.9 45.6,370.3 44,361.5 39.6,359.2 39.4,357.1 36.3,355.9 35.1,353.6 35.4,351.8 37.5,354.3 
	40.9,355.5 41.8,358.5 44.2,359.4 45.8,358.4 48.1,356.8 51.2,353.6 53.7,348.2 54.6,350.4 52.1,355.2 49.8,357.7 46.2,361.1 
	48.1,370.8 42.6,380.5 42.8,388 39.7,398.8 "/>
<polygon fill="#4D4D4D" stroke="#FFFFFF" stroke-miterlimit="10" points="401.6,422.7 402.8,420.7 403.4,416.4 402.1,417.8 
	401.9,420 401.2,420.8 "/>
<polygon fill="#4D4D4D" stroke="#FFFFFF" stroke-miterlimit="10" points="122.1,370.6 151.4,369.8 132.9,314.7 134.3,270.1 
	162.8,241.6 154,200.7 171,181.9 164.7,182 151.7,194.5 134.9,179.9 139.1,143.6 132.5,146.1 126.4,183.7 144.6,203.8 149.3,239.3 
	130.1,254.8 110.8,235.2 106.4,198.1 100.8,206.8 103.8,235.4 86.7,237.6 81,240.7 104.1,244.1 119.3,264.2 112.8,310.1 "/>
<g>
	<polygon fill="#4D4D4D" stroke="#FFFFFF" stroke-miterlimit="10" points="-41.3,562.1 -32,521.4 -27,562.1 	"/>
	<polygon opacity="0.73" fill="#4D4D4D" stroke="#FFFFFF" stroke-miterlimit="10" enable-background="new    " points="-41.3,562.1 
		-40.7,499.6 -32,521.4 	"/>
	<polygon fill="#4D4D4D" stroke="#FFFFFF" stroke-miterlimit="10" points="-32,521.4 -34.5,493 -40.7,499.6 	"/>
	<polygon fill="#4D4D4D" stroke="#FFFFFF" stroke-miterlimit="10" points="-34.5,493 -16.2,469.6 -25.4,474.3 	"/>
	<polygon fill="#4D4D4D" stroke="#FFFFFF" stroke-miterlimit="10" points="-40.7,499.6 -48.2,476.4 -34.5,493 	"/>
	<polygon fill="#4D4D4D" stroke="#FFFFFF" stroke-miterlimit="10" points="-40.1,486.2 -25.4,474.3 -34.5,493 	"/>
	<polygon fill="#4D4D4D" stroke="#FFFFFF" stroke-miterlimit="10" points="-25.4,474.3 -20,461.4 -16.2,469.6 	"/>
	<polygon fill="#4D4D4D" stroke="#FFFFFF" stroke-miterlimit="10" points="-16.2,469.6 -15.4,455.1 -20,461.4 	"/>
	<polygon fill="#4D4D4D" stroke="#FFFFFF" stroke-miterlimit="10" points="-40.1,486.2 -46.1,461.4 -48.2,476.4 	"/>
	<polygon fill="#4D4D4D" stroke="#FFFFFF" stroke-miterlimit="10" points="-46.1,461.4 -57.5,452.1 -51.8,463 	"/>
	<polygon fill="#4D4D4D" stroke="#FFFFFF" stroke-miterlimit="10" points="-62.9,453.1 -57.5,452.1 -51.8,463 	"/>
	<polygon fill="#4D4D4D" stroke="#FFFFFF" stroke-miterlimit="10" points="-51.8,463 -48.2,475.1 -46.1,461.4 	"/>
	<polygon fill="#4D4D4D" stroke="#FFFFFF" stroke-miterlimit="10" points="-20,461.4 -20.8,448.6 -15.4,455.1 	"/>
	<polygon fill="#4D4D4D" stroke="#FFFFFF" stroke-miterlimit="10" points="-17.7,445.9 -15.4,455.1 -20.8,448.6 	"/>
	<polygon fill="#4D4D4D" stroke="#FFFFFF" stroke-miterlimit="10" points="-20.8,448.6 -20,440.3 -17.7,445.9 	"/>
	<polygon fill="#4D4D4D" stroke="#FFFFFF" stroke-miterlimit="10" points="-17.7,445.9 -12.1,438.8 -20,441.5 	"/>
	<polygon fill="#4D4D4D" stroke="#FFFFFF" stroke-miterlimit="10" points="-20,441.5 -10.8,434.4 -12.1,438.8 	"/>
	<polygon fill="#4D4D4D" stroke="#FFFFFF" stroke-miterlimit="10" points="-20,461.4 -23.7,450.5 -20.8,448.6 	"/>
	<polygon fill="#4D4D4D" stroke="#FFFFFF" stroke-miterlimit="10" points="-20.8,448.6 -27,444.4 -23.7,450.5 	"/>
	<polygon fill="#4D4D4D" stroke="#FFFFFF" stroke-miterlimit="10" points="-23.7,450.5 -31.2,447.4 -27,444.4 	"/>
	<polygon fill="#4D4D4D" stroke="#FFFFFF" stroke-miterlimit="10" points="-31.2,447.4 -34.5,438.8 -27,444.4 	"/>
	<polygon fill="#4D4D4D" stroke="#FFFFFF" stroke-miterlimit="10" points="-27,444.4 -30.8,434.4 -34.5,438.8 	"/>
	<polygon fill="#4D4D4D" stroke="#FFFFFF" stroke-miterlimit="10" points="-34.5,438.8 -36.4,426.4 -30.8,434.4 	"/>
	<polygon fill="#4D4D4D" stroke="#FFFFFF" stroke-miterlimit="10" points="-30.8,434.4 -34.5,420.6 -36.4,426.4 	"/>
	<polygon fill="#4D4D4D" stroke="#FFFFFF" stroke-miterlimit="10" points="-36.4,426.4 -41.3,423.8 -34.5,420.6 	"/>
	<polygon fill="#4D4D4D" stroke="#FFFFFF" stroke-miterlimit="10" points="-37.9,422.2 -43.1,419.8 -41.3,423.8 	"/>
	<path fill="#4D4D4D" stroke="#FFFFFF" stroke-miterlimit="10" d="M-49,423.5"/>
</g>
<g>
	
		<text transform="matrix(1 0 0 1 102.2814 525.9924)" fill="#4D4D4D" stroke="#FFFFFF" stroke-miterlimit="10" font-family="'Khula-Bold'" font-size="31.6668">BRANCH</text>
</g>
<g>
	
		<text transform="matrix(1 0 0 1 4.0541 525.9925)" fill="#4D4D4D" stroke="#FFFFFF" stroke-miterlimit="10" font-family="'Khula-Bold'" font-size="31.6668">SELFIE</text>
</g>
<polygon fill="#4D4D4D" stroke="#FFFFFF" stroke-miterlimit="10" points="243.1,264.4 272.4,264.4 255.4,208.8 258,164.3 
	287.2,136.6 279.5,95.4 296.9,77.1 290.6,77.1 277.3,89.2 260.9,74.1 266.1,37.9 259.5,40.3 252.3,77.7 270,98.2 273.8,133.9 
	254.2,148.9 235.4,128.8 229.6,119.7 228.4,128.8 228.5,137.5 243.2,158 235.4,203.7 "/>
<polygon fill="#4D4D4D" stroke="#FFFFFF" stroke-miterlimit="10" points="355,264.4 342.5,189.5 347.5,175.5 351.7,182 361.5,138.5 
	346.5,95 327.5,80 321.5,65 321.5,51.5 329.5,73.5 346.5,84 349.5,48 342.5,12 346.1,2.7 356.3,47.7 354,90.3 367.3,127.7 
	368.5,107 377.5,124.5 360.5,187.5 375.5,264.4 "/>
</svg>
