<?xml version="1.0" encoding="utf-8"?>
<!-- Generator: Adobe Illustrator 18.0.0, SVG Export Plug-In . SVG Version: 6.00 Build 0)  -->
<!DOCTYPE svg PUBLIC "-//W3C//DTD SVG 1.1//EN" "http://www.w3.org/Graphics/SVG/1.1/DTD/svg11.dtd">
<svg version="1.1" xmlns="http://www.w3.org/2000/svg" xmlns:xlink="http://www.w3.org/1999/xlink" x="0px" y="0px"
	 viewBox="0 83 500 642" enable-background="new 0 83 500 642" xml:space="preserve">
<g id="Layer_1">
	<rect x="22.3" y="102.3" fill="#E6E6E6" width="457.5" height="603"/>
	<circle fill="#FF766A" cx="37.9" cy="114.8" r="5"/>
	<circle fill="#FFF874" cx="53.1" cy="114.8" r="5"/>
	<circle fill="#7FFFA4" cx="68.4" cy="114.8" r="5"/>
	<path fill="#E6E6E6" d="M-792.7,187v-0.8l-3.4,3.4l3.4,3.4v-0.8l-2.6-2.6L-792.7,187z"/>
	<path fill="#F2F2F2" d="M-823.7,253.8H-896c-1.1,0-2-0.9-2-2v-86.1c0-1.1,0.9-2,2-2h72.2c1.1,0,2,0.9,2,2v86.1
		C-821.7,252.9-822.6,253.8-823.7,253.8z"/>
	<text transform="matrix(1 0 0 1 -892.3317 227.136)" fill="#525657" font-family="'Montserrat-Bold'" font-size="6.8624">Coach</text>
	<g>
		<text transform="matrix(1 0 0 1 -892.0533 244.3777)" fill="#787E80" font-family="'Montserrat-Regular'" font-size="6.0999">View</text>
	</g>
	<path fill="#E6E6E6" d="M-891.9,187v-0.8l-3.4,3.4l3.4,3.4v-0.8l-2.6-2.6L-891.9,187z"/>
	<path fill="#E6E6E6" d="M-827.9,192.2v0.8l3.4-3.4l-3.4-3.4v0.8l2.6,2.6L-827.9,192.2z"/>
	<path fill="#B8B8B8" d="M-822.8,162.5h-74.1c-0.6,0-1.1,0.5-1.1,1.1v49.9c-0.1,0.1,76.2-0.1,76.2,0v-49.9
		C-821.7,163-822.2,162.5-822.8,162.5z"/>
	<text transform="matrix(1 0 0 1 300.999 146.2579)" font-family="'Khula-Bold'" font-size="7.6249">About</text>
	<text transform="matrix(1 0 0 1 346.749 146.2579)" font-family="'Khula-Bold'" font-size="7.6249">Shop</text>
	<text transform="matrix(1 0 0 1 384.8729 146.2579)" font-family="'Khula-Bold'" font-size="7.6249">Contact</text>
	<g>
		<path d="M448,146.6c-0.6,0-1,0.5-1,1c0,0.6,0.4,1,1,1s1-0.5,1-1C449.1,147.1,448.6,146.6,448,146.6z M445,138.4v1h1l1.8,3.9
			l-0.7,1.2c-0.1,0.1-0.1,0.3-0.1,0.5c0,0.6,0.5,1,1,1h6.1v-1h-5.9c-0.1,0-0.1-0.1-0.1-0.1s0,0,0-0.1l0.5-0.8h3.8
			c0.4,0,0.7-0.2,0.9-0.5l1.8-3.3c0-0.1,0.1-0.2,0.1-0.2c0-0.3-0.2-0.5-0.5-0.5h-7.5l-0.5-1L445,138.4L445,138.4z M453.1,146.6
			c-0.6,0-1,0.5-1,1c0,0.6,0.4,1,1,1s1-0.5,1-1S453.7,146.6,453.1,146.6z"/>
		<path fill="none" d="M444.5,137.4h12.2v12.2h-12.2V137.4z"/>
	</g>
	<line fill="none" stroke="#999999" stroke-width="4" stroke-miterlimit="10" x1="-412" y1="720.8" x2="-47" y2="720.8"/>
	<path fill="none" stroke="#E6E6E6" stroke-miterlimit="10" d="M87.3,649"/>
	<path fill="none" stroke="#E6E6E6" stroke-miterlimit="10" d="M78.7,635.8"/>
	<path fill="none" stroke="#E6E6E6" stroke-miterlimit="10" d="M87.3,623"/>
	<path fill="none" stroke="#E6E6E6" stroke-miterlimit="10" d="M221.7,623"/>
	<path fill="none" stroke="#E6E6E6" stroke-miterlimit="10" d="M230.2,636"/>
	<text transform="matrix(1 0 0 1 43.9931 146.2579)" font-family="'Khula-Bold'" font-size="7.6249">BRAND</text>
	<rect x="-440.9" y="106.8" fill="#B8B8B8" width="391.1" height="64.5"/>
	<circle fill="#E6E6E6" cx="-411" cy="139" r="20.8"/>
	<rect x="-367.7" y="128.9" fill="#E6E6E6" width="71" height="10.1"/>
	<rect x="-248" y="119.7" fill="#E6E6E6" width="71" height="8.7"/>
	<rect x="-170.6" y="119.3" fill="#E6E6E6" width="28" height="9"/>
	<rect x="-213.7" y="131.6" fill="#E6E6E6" width="71" height="8.7"/>
	<rect x="-248" y="131.3" fill="#E6E6E6" width="28" height="9"/>
	<rect x="-248" y="142.6" fill="#E6E6E6" width="71" height="8.7"/>
	<rect x="-170.6" y="142.3" fill="#E6E6E6" width="28" height="9"/>
	<rect x="-440.9" y="196.8" fill="#B8B8B8" width="391.1" height="64.5"/>
	<circle fill="#E6E6E6" cx="-411" cy="229" r="20.8"/>
	<rect x="-367.7" y="218.9" fill="#E6E6E6" width="71" height="10.1"/>
	<rect x="-248" y="209.6" fill="#E6E6E6" width="71" height="8.7"/>
	<rect x="-170.6" y="209.3" fill="#E6E6E6" width="28" height="9"/>
	<rect x="-213.7" y="221.6" fill="#E6E6E6" width="71" height="8.7"/>
	<rect x="-248" y="221.3" fill="#E6E6E6" width="28" height="9"/>
	<rect x="-248" y="232.6" fill="#E6E6E6" width="71" height="8.7"/>
	<rect x="-170.6" y="232.3" fill="#E6E6E6" width="28" height="9"/>
	<rect x="-440.9" y="279.8" fill="#B8B8B8" width="391.1" height="64.5"/>
	<circle fill="#E6E6E6" cx="-411" cy="312" r="20.8"/>
	<rect x="-367.7" y="302" fill="#E6E6E6" width="71" height="10.1"/>
	<rect x="-248" y="292.6" fill="#E6E6E6" width="71" height="8.7"/>
	<rect x="-170.6" y="292.4" fill="#E6E6E6" width="28" height="9"/>
	<rect x="-213.7" y="304.6" fill="#E6E6E6" width="71" height="8.7"/>
	<rect x="-248" y="304.4" fill="#E6E6E6" width="28" height="9"/>
	<rect x="-248" y="315.6" fill="#E6E6E6" width="71" height="8.7"/>
	<rect x="-170.6" y="315.4" fill="#E6E6E6" width="28" height="9"/>
	<g>
		<rect x="54.7" y="215.7" fill="#B8B8B8" width="65.2" height="10.1"/>
		<rect x="134.7" y="215.7" fill="#B8B8B8" width="25.9" height="10.1"/>
		<rect x="214.7" y="215.7" fill="#B8B8B8" width="91.9" height="10.1"/>
		<rect x="174.7" y="215.7" fill="#B8B8B8" width="25.9" height="10.1"/>
		<rect x="54.7" y="235.7" fill="#B8B8B8" width="73" height="10.1"/>
		<rect x="144.3" y="235.7" fill="#B8B8B8" width="29.1" height="10.1"/>
		<rect x="234" y="235.7" fill="#B8B8B8" width="103" height="10.1"/>
		<rect x="189.2" y="235.7" fill="#B8B8B8" width="29.1" height="10.1"/>
		<rect x="54.7" y="178.4" fill="#B8B8B8" width="104.9" height="23.6"/>
	</g>
	<path fill="#F2F2F2" d="M-731.7,253.8h-72.2c-1.1,0-2-0.9-2-2v-86.1c0-1.1,0.9-2,2-2h72.2c1.1,0,2,0.9,2,2v86.1
		C-729.7,252.9-730.6,253.8-731.7,253.8z"/>
	<g>
		<text transform="matrix(1 0 0 1 -800.0197 244.3777)" fill="#787E80" font-family="'Montserrat-Regular'" font-size="6.0999">View</text>
	</g>
	<path fill="#E6E6E6" d="M-799.8,187v-0.8l-3.4,3.4l3.4,3.4v-0.8l-2.6-2.6L-799.8,187z"/>
	<path fill="#B8B8B8" d="M-730.8,162.5h-74.1c-0.6,0-1.1,0.5-1.1,1.1v49.9c-0.1,0.1,76.2-0.1,76.2,0v-49.9
		C-729.7,163-730.2,162.5-730.8,162.5z"/>
	<path fill="#F2F2F2" d="M-630.6,253.8h-72.2c-1.1,0-2-0.9-2-2v-86.1c0-1.1,0.9-2,2-2h72.2c1.1,0,2,0.9,2,2v86.1
		C-628.6,252.9-629.5,253.8-630.6,253.8z"/>
	<g>
		<text transform="matrix(1 0 0 1 -698.9329 244.3777)" fill="#787E80" font-family="'Montserrat-Regular'" font-size="6.0999">View</text>
	</g>
	<path fill="#E6E6E6" d="M-698.7,187v-0.8l-3.4,3.4l3.4,3.4v-0.8l-2.6-2.6L-698.7,187z"/>
	<path fill="#B8B8B8" d="M-629.7,162.5h-74.1c-0.6,0-1.1,0.5-1.1,1.1v49.9c-0.1,0.1,76.2-0.1,76.2,0v-49.9
		C-628.6,163-629.1,162.5-629.7,162.5z"/>
	<path fill="#F2F2F2" d="M-529.6,253.8h-72.2c-1.1,0-2-0.9-2-2v-86.1c0-1.1,0.9-2,2-2h72.2c1.1,0,2,0.9,2,2v86.1
		C-527.6,252.9-528.5,253.8-529.6,253.8z"/>
	<g>
		<text transform="matrix(1 0 0 1 -597.9329 244.3777)" fill="#787E80" font-family="'Montserrat-Regular'" font-size="6.0999">View</text>
	</g>
	<path fill="#E6E6E6" d="M-597.7,187v-0.8l-3.4,3.4l3.4,3.4v-0.8l-2.6-2.6L-597.7,187z"/>
	<path fill="#B8B8B8" d="M-528.7,162.5h-74.1c-0.6,0-1.1,0.5-1.1,1.1v49.9c-0.1,0.1,76.2-0.1,76.2,0v-49.9
		C-527.6,163-528.1,162.5-528.7,162.5z"/>
	<text transform="matrix(1 0 0 1 -801.486 226.1359)" fill="#525657" font-family="'Montserrat-Bold'" font-size="6.8624">Coach</text>
	<text transform="matrix(1 0 0 1 -700.386 226.1357)" fill="#525657" font-family="'Montserrat-Bold'" font-size="6.8624">Coach</text>
	<text transform="matrix(1 0 0 1 -597.9329 227.1359)" fill="#525657" font-family="'Montserrat-Bold'" font-size="6.8624">Coach</text>
	<rect x="71.7" y="296.9" fill="#F2F2F2" width="358.3" height="43.9"/>
	<text transform="matrix(1 0 0 1 118.9253 318.1103)" fill="#525657" font-family="'Montserrat-Bold'" font-size="6.7814">Product 1</text>
	<g>
		<text transform="matrix(1 0 0 1 118.9253 327.4951)" fill="#787E80" font-family="'Montserrat-Regular'" font-size="6.0279">Qty: 1</text>
	</g>
	<circle fill="#B8B8B8" cx="92.8" cy="318.8" r="12.1"/>
	<g>
		<text transform="matrix(1 0 0 1 346.0967 321.0771)" fill="#787E80" font-family="'Montserrat-Regular'" font-size="6.0279">79.00</text>
	</g>
	<g>
		<text transform="matrix(1 0 0 1 391.3057 321.0771)" fill="#525657" font-family="'Montserrat-Bold'" font-size="6.7814">79.00</text>
	</g>
	<polyline fill="#F2F2F2" points="430,360.9 430,404.8 71.7,404.8 71.7,360.9 	"/>
	<text transform="matrix(1 0 0 1 118.9253 382.1562)" fill="#525657" font-family="'Montserrat-Bold'" font-size="6.7814">Product 2</text>
	<g>
		<text transform="matrix(1 0 0 1 118.9253 391.542)" fill="#787E80" font-family="'Montserrat-Regular'" font-size="6.0279">Qty: 2</text>
	</g>
	<circle fill="#B8B8B8" cx="92.8" cy="382.9" r="12.1"/>
	<g>
		<text transform="matrix(1 0 0 1 346.0967 385.123)" fill="#787E80" font-family="'Montserrat-Regular'" font-size="6.0279">79.00</text>
	</g>
	<g>
		<text transform="matrix(1 0 0 1 387.5381 385.123)" fill="#525657" font-family="'Montserrat-Bold'" font-size="6.7814">158.00</text>
	</g>
	<path fill="#B8B8B8" d="M181.4,314.8l-1-1l-4,4l-4-4l-1,1l4,4l-4,4l1,1l4-4l4,4l1-1l-4-4L181.4,314.8z"/>
	<path fill="#B8B8B8" d="M181.4,378.8l-1-1l-4,4l-4-4l-1,1l4,4l-4,4l1,1l4-4l4,4l1-1l-4-4L181.4,378.8z"/>
	<g>
		<text transform="matrix(1 0 0 1 380.0039 430.332)" fill="#525657" font-family="'Montserrat-Bold'" font-size="6.7814">$ 237.00</text>
	</g>
	<g>
		<text transform="matrix(1 0 0 1 331.0254 430.332)" fill="#787E80" font-family="'Montserrat-Regular'" font-size="6.0279">SubTotal</text>
	</g>
	<g>
		<path fill="#B8B8B8" d="M427,464.4h-71.3c-1.1,0-2-0.9-2-2v-11.1c0-1.1,0.9-2,2-2H427c1.1,0,2,0.9,2,2v11.1
			C429,463.6,428.1,464.4,427,464.4z"/>
		<text transform="matrix(1 0 0 1 375.1504 458.9824)" fill="#FFFFFF" font-family="'Montserrat-Regular'" font-size="6.0279">Checkout</text>
	</g>
</g>
<g id="content-a">
	<g id="content-a_1_">
		<rect x="49.6" y="166.9" opacity="0.5" fill="#F0F0F0" enable-background="new    " width="400.8" height="89.2"/>
	</g>
</g>
</svg>
